<svg width="230" height="154" viewBox="0 0 230 154" fill="none" xmlns="http://www.w3.org/2000/svg">
<path d="M33.9722 154C25.299 154 17.6863 151.928 11.81 147.657C4.78479 142.547 -5.61178 129.513 3.68247 99.5952C22.5117 38.9916 35.3779 16.9675 45.4809 3.4161C78.2033 -40.4749 120.218 -52.0975 148.632 -48.3394C168.944 -45.6515 184.506 -35.3865 190.261 -20.877C194.373 -10.5012 194.978 -1.83117 195.566 6.55323C196.582 21.1188 197.541 34.8772 217.307 57.8272C230.034 72.6031 233.386 90.4646 225.459 101.267C218.341 110.972 204.14 112.486 187.467 105.313C149.123 88.8151 133.04 100.76 103.836 122.431C99.0416 125.99 94.0832 129.67 88.6016 133.539C69.6553 146.914 50.0045 154 33.9722 154ZM51.9124 8.21084C42.217 21.2167 29.8145 42.5283 11.3464 101.975C5.47329 120.878 7.26561 134.431 16.5278 141.166C30.0439 150.991 58.413 145.028 83.9754 126.984C89.3783 123.169 94.2982 119.519 99.0544 115.987C128.561 94.088 148.05 79.6187 190.638 97.9392C203.632 103.528 214.233 102.999 218.989 96.5175C223.801 89.9592 222.681 76.3596 211.226 63.0601C189.721 38.0914 188.622 22.3416 187.56 7.11005C186.992 -1.02242 186.456 -8.70399 182.801 -17.9228C178.136 -29.6883 164.968 -38.0871 147.578 -40.3882C121.435 -43.8399 82.5568 -32.8896 51.9124 8.21084Z" fill="#E7E7E7"/>
</svg>
