<svg width="178" height="156" viewBox="0 0 178 156" fill="none" xmlns="http://www.w3.org/2000/svg">
<path d="M33.9722 156C25.299 156 17.6863 153.928 11.81 149.657C4.78479 144.547 -5.61178 131.513 3.68247 101.595C22.5117 40.9916 35.3779 18.9675 45.4809 5.4161C78.2033 -38.4749 120.218 -50.0975 148.632 -46.3394C168.944 -43.6515 184.506 -33.3865 190.261 -18.877C194.373 -8.50123 194.978 0.168827 195.566 8.55323C196.582 23.1188 197.541 36.8772 217.307 59.8272C230.034 74.6031 233.386 92.4646 225.459 103.267C218.341 112.972 204.14 114.486 187.467 107.313C149.123 90.8151 133.04 102.76 103.836 124.431C99.0416 127.99 94.0832 131.67 88.6016 135.539C69.6553 148.914 50.0045 156 33.9722 156ZM51.9124 10.2108C42.217 23.2167 29.8145 44.5283 11.3464 103.975C5.47329 122.878 7.26561 136.431 16.5278 143.166C30.0439 152.991 58.413 147.028 83.9754 128.984C89.3783 125.169 94.2982 121.519 99.0544 117.987C128.561 96.088 148.05 81.6187 190.638 99.9392C203.632 105.528 214.233 104.999 218.989 98.5175C223.801 91.9592 222.681 78.3596 211.226 65.0601C189.721 40.0914 188.622 24.3416 187.56 9.11005C186.992 0.977581 186.456 -6.70399 182.801 -15.9228C178.136 -27.6883 164.968 -36.0871 147.578 -38.3882C121.435 -41.8399 82.5568 -30.8896 51.9124 10.2108Z" fill="#E7E7E7"/>
</svg>
