<svg width="220" height="164" viewBox="0 0 220 164" fill="none" xmlns="http://www.w3.org/2000/svg">
<path d="M78.1773 -16.718C5.5826 -48.3845 -35.6197 -42.3086 -47.482 -23.2002C-66.7342 7.81515 7.75762 -10.9783 -0.903435 30.7914C-9.56449 72.5612 -80.6257 95.314 -78.9716 128.423C-76.7616 172.632 25.0369 177.512 79.6098 126.234C134.183 74.9558 117.753 44.405 190.061 56.0224C233.693 63.0333 225.281 -2.64187 185.933 -17.3983C146.585 -32.1548 123.436 3.02397 78.1773 -16.718Z" fill="#E7E7E7"/>
<mask id="mask0_4_677" style="mask-type:luminance" maskUnits="userSpaceOnUse" x="-79" y="-39" width="299" height="203">
<path d="M78.1773 -16.718C5.5826 -48.3845 -35.6197 -42.3086 -47.482 -23.2002C-66.7342 7.81515 7.75762 -10.9783 -0.903435 30.7914C-9.56449 72.5612 -80.6257 95.314 -78.9716 128.423C-76.7616 172.632 25.0369 177.512 79.6098 126.234C134.183 74.9558 117.753 44.405 190.061 56.0224C233.693 63.0333 225.281 -2.64187 185.933 -17.3983C146.585 -32.1548 123.436 3.02397 78.1773 -16.718Z" fill="white"/>
</mask>
<g mask="url(#mask0_4_677)">
<path d="M100.135 -92.6992L97.2577 -92.2374L151.468 245.474L154.345 245.012L100.135 -92.6992Z" fill="white"/>
<path d="M151.478 -83.8838L129.418 257.418L132.326 257.606L154.386 -83.6959L151.478 -83.8838Z" fill="white"/>
<path d="M208.004 -53.7676L130.298 279.324L133.137 279.987L210.844 -53.1052L208.004 -53.7676Z" fill="white"/>
<path d="M55.5746 -84.6215L52.7617 -83.8545L142.747 246.127L145.56 245.36L55.5746 -84.6215Z" fill="white"/>
<path d="M-24.5561 -51.9828L-27.1599 -50.6758L126.27 254.988L128.874 253.681L-24.5561 -51.9828Z" fill="white"/>
<path d="M20.6305 -64.7759L17.8658 -63.8434L127.176 260.255L129.94 259.323L20.6305 -64.7759Z" fill="white"/>
<path d="M-64.8379 -18.5602L-67.1953 -16.8415L134.288 259.509L136.645 257.791L-64.8379 -18.5602Z" fill="white"/>
<path d="M-107.545 35.5357L-109.469 37.7235L147.354 263.594L149.278 261.406L-107.545 35.5357Z" fill="white"/>
<path d="M-131.896 70.7452L-133.522 73.1651L150.355 263.91L151.981 261.49L-131.896 70.7452Z" fill="white"/>
<path d="M-119.471 -12.7308L-121.54 -10.6762L119.482 231.987L121.55 229.933L-119.471 -12.7308Z" fill="white"/>
</g>
</svg>
