<svg width="111" height="195" viewBox="0 0 111 195" fill="none" xmlns="http://www.w3.org/2000/svg">
<path d="M87.6391 114.039C97.8405 87.3706 91.8014 61.3027 71.2443 43.9265C52.587 28.1504 27.1292 24.9477 9.33422 36.142C-6.93361 46.3758 -14.9872 63.4892 -12.2076 81.9248C-9.71762 98.4419 1.23912 111.629 15.7027 115.514C30.0511 119.369 43.876 113.778 50.9219 101.275C57.6445 89.3104 55.7216 75.0666 46.0815 65.8387C44.7692 64.5807 42.6906 64.6262 41.4327 65.9385C40.1741 67.2648 40.2185 69.3335 41.5324 70.5874C50.7007 79.3672 49.2345 90.8589 45.1914 98.0407C40.7993 105.84 31.1944 112.857 17.4128 109.153C5.47363 105.948 -3.60003 94.8709 -5.69895 80.9401C-8.07828 65.1649 -1.14898 50.4996 12.8366 41.7029C28.2324 32.0182 50.5073 34.9986 67.0014 48.9425C85.8287 64.8635 90.9518 89.1396 80.6711 113.744C67.6399 145.049 35.6174 165.525 2.7985 163.535C-29.3422 161.588 -53.6758 139.429 -63.9543 102.744C-64.4458 100.997 -66.257 99.9754 -68.008 100.465C-69.7589 100.955 -70.7738 102.774 -70.2864 104.519C-59.369 143.487 -32.1915 168.006 2.40367 170.103C37.9763 172.259 72.6612 150.125 86.7501 116.276C87.0532 115.533 87.3539 114.784 87.6391 114.039Z" fill="#E7E7E7"/>
</svg>
